<svg width="74" height="74" viewBox="0 0 74 74" fill="none" xmlns="http://www.w3.org/2000/svg">
<circle cx="37" cy="37" r="37" fill="#FFEAEA"/>
<g clip-path="url(#clip0_29_63)">
<path d="M36.6667 35.1667C32.8833 34.1833 31.6667 33.1667 31.6667 31.5833C31.6667 29.7667 33.35 28.5 36.1667 28.5C39.1333 28.5 40.2333 29.9167 40.3333 32H44.0167C43.9 29.1333 42.15 26.5 38.6667 25.65V22H33.6667V25.6C30.4333 26.3 27.8333 28.4 27.8333 31.6167C27.8333 35.4667 31.0167 37.3833 35.6667 38.5C39.8333 39.5 40.6667 40.9667 40.6667 42.5167C40.6667 43.6667 39.85 45.5 36.1667 45.5C32.7333 45.5 31.3833 43.9667 31.2 42H27.5333C27.7333 45.65 30.4667 47.7 33.6667 48.3833V52H38.6667V48.4167C41.9167 47.8 44.5 45.9167 44.5 42.5C44.5 37.7667 40.45 36.15 36.6667 35.1667Z" fill="#FF0000"/>
</g>
<defs>
<clipPath id="clip0_29_63">
<rect width="40" height="40" fill="white" transform="translate(17 17)"/>
</clipPath>
</defs>
</svg>
